<svg height="32" viewBox="0 0 32 32" width="32" xmlns="http://www.w3.org/2000/svg"><path d="m31.995 8.167c0-.984-.083-1.964-.318-2.922-.422-1.745-1.417-3.078-2.906-4.057-.766-.5-1.609-.807-2.505-.969-.688-.125-1.385-.182-2.083-.198-.052-.005-.109-.016-.167-.021h-16.031c-.203.016-.406.026-.609.036-.995.057-1.984.161-2.922.536-1.781.703-3.068 1.932-3.818 3.703-.26.599-.391 1.234-.484 1.88-.078.521-.12 1.047-.135 1.573 0 .042-.01.083-.01.125v16.297c.01.188.021.375.031.563.068 1.089.208 2.167.667 3.167.865 1.891 2.318 3.135 4.313 3.734.557.172 1.141.25 1.724.302.74.073 1.479.083 2.219.083h14.708c.698 0 1.396-.047 2.094-.135 1.099-.141 2.13-.464 3.063-1.078 1.12-.74 1.964-1.719 2.505-2.943.25-.563.391-1.161.495-1.766.151-.901.182-1.813.182-2.724-.005-5.063 0-10.125-.005-15.188zm-8.563 5.317v7.615c0 .557-.078 1.104-.328 1.609-.385.786-1.01 1.281-1.849 1.521-.464.135-.943.208-1.427.229-1.266.063-2.365-.797-2.589-2.047-.193-1.031.302-2.167 1.385-2.698.427-.208.891-.333 1.354-.427.505-.109 1.01-.208 1.51-.323.37-.083.609-.307.682-.688.021-.083.026-.172.026-.255 0-2.422 0-4.844 0-7.26 0-.083-.016-.167-.036-.245-.052-.203-.198-.323-.406-.313-.214.01-.422.047-.63.089-1.016.198-2.031.401-3.042.609l-4.932.995c-.021.005-.047.016-.068.016-.37.104-.5.271-.516.656-.005.057 0 .115 0 .172-.005 3.469 0 6.938-.005 10.406 0 .563-.063 1.115-.286 1.635-.37.854-1.026 1.391-1.911 1.646-.469.135-.948.214-1.438.229-1.276.047-2.339-.802-2.557-2.057-.188-1.083.307-2.25 1.536-2.771.479-.198.974-.307 1.479-.411.38-.078.766-.156 1.146-.234.51-.109.776-.432.802-.953v-.198c0-3.948 0-7.896 0-11.844 0-.167.021-.333.057-.495.094-.38.365-.599.729-.688.339-.089.688-.151 1.031-.224.979-.198 1.953-.396 2.932-.589l3.026-.615c.896-.177 1.786-.359 2.682-.536.292-.057.589-.12.885-.141.411-.036.698.224.74.641.01.099.016.198.016.297v7.641z"/></svg>